<?xml version="1.0" encoding="UTF-8"?>
<svg xmlns="http://www.w3.org/2000/svg" viewBox="0 0 579 126" role="img" aria-label="Duskwarden">
  <title>Duskwarden</title>
  <desc>Duskwarden wordmark in Pirata One. Outlined paths for promotional use — no font install required.</desc>
  <path fill="#d4a017" d="M60.64 29.80L60.64 29.80L60.64 97.24Q60.64 98.20 47.50 103.30Q34.36 108.40 31.42 108.40Q28.48 108.40 24.70 103.24Q20.92 98.08 20.92 90.88L20.92 90.88L20.92 33.28Q20.92 26.80 16 25.72L16 25.72L16 23.08L28.12 16.24Q30.76 17.32 33.04 19.78Q35.32 22.24 35.32 24.40L35.32 24.40L50.20 16Q52.36 16 56.50 20.92Q60.64 25.84 60.64 29.80ZM41.44 97.36L41.44 97.36Q43.72 97.36 46.12 95.44L46.12 95.44L46.12 38.80Q46.12 30.28 40 30.28L40 30.28Q37.60 30.28 35.32 32.08L35.32 32.08L35.32 88.48Q35.32 97.36 41.44 97.36Z"/>
  <path fill="#d4a017" d="M89.04 89.68Q89.04 92.80 90.90 94.78Q92.76 96.76 95.04 96.76Q97.32 96.76 99.84 94.96L99.84 94.96L99.84 57.64Q99.84 50.32 94.92 49.36L94.92 49.36L94.92 46.72L107.04 39.88Q109.68 40.96 111.96 43.42Q114.24 45.88 114.24 48.04L114.24 48.04L114.24 88.72Q114.24 92.68 115.92 95.56Q117.60 98.44 120.12 98.44L120.12 98.44L120.12 101.08Q119.28 101.20 107.04 108.40L107.04 108.40Q104.28 107.20 102.06 104.86Q99.84 102.52 99.84 100.36L99.84 100.36L84.84 108.40Q84.48 108.16 83.76 107.74Q83.04 107.32 81.30 105.94Q79.56 104.56 78.24 103.00L78.24 103.00Q74.64 99.04 74.64 94L74.64 94L74.64 57.64Q74.64 51.04 68.76 49.84L68.76 49.84L68.76 47.20L81.84 39.88Q84.48 40.96 86.76 43.42Q89.04 45.88 89.04 48.04L89.04 48.04L89.04 89.68Z"/>
  <path fill="#d4a017" d="M133.76 82.12L133.76 82.12Q130.76 82.12 128.60 77.56Q126.44 73 126.44 66.40L126.44 66.40L126.44 53.44Q126.44 51.16 139.04 45.58Q151.64 40 153.56 40L153.56 40Q154.64 40 155.48 41.26Q156.32 42.52 156.80 43.30Q157.28 44.08 158.30 45.94Q159.32 47.80 160.04 49.00L160.04 49.00Q161.60 51.88 164 51.88L164 51.88L164 54.28Q162.08 55.12 158.96 56.80L158.96 56.80Q151.28 61.00 150.68 61.00L150.68 61.00Q148.88 61.00 146.78 55.12Q144.68 49.24 143 49.24L143 49.24Q140.84 49.24 140.84 52.84L140.84 52.84L140.84 67.60Q140.84 72.40 143 72.40L143 72.40Q143.48 72.40 150.44 69.28Q157.40 66.16 158.84 66.16L158.84 66.16Q161.72 66.16 163.94 70.78Q166.16 75.40 166.16 82.60L166.16 82.60L166.16 96.16Q166.16 98.44 152.42 104.02Q138.68 109.60 136.64 109.60L136.64 109.60Q135.80 109.60 135.02 108.10Q134.24 106.60 132.86 103.48Q131.48 100.36 130.16 98.20L130.16 98.20Q128.60 95.32 126.20 95.32L126.20 95.32L126.20 92.92Q128.12 92.08 131.36 90.40L131.36 90.40Q138.92 86.20 139.52 86.20L139.52 86.20Q141.32 86.20 144.02 93.28Q146.72 100.36 148.40 100.36L148.40 100.36Q149.60 100.36 150.68 99.40Q151.76 98.44 151.76 96.76L151.76 96.76L151.76 81.76Q151.76 76.36 148.76 76.36L148.76 76.36Q147.80 76.36 141.20 79.24Q134.60 82.12 133.76 82.12Z"/>
  <path fill="#d4a017" d="M193.24 77.20L193.24 90.64Q193.24 97.96 198.16 98.92L198.16 98.92L198.16 101.56L186.04 108.40Q183.40 107.32 181.12 104.86Q178.84 102.40 178.84 100.24L178.84 100.24L178.84 40.84Q178.84 37.60 177.76 36.22Q176.68 34.84 174.04 34.84L174.04 34.84L174.04 31.48Q189.64 23.32 201.88 16.12L201.88 16.12L203.80 19.96Q202.60 20.56 200.44 22.30Q198.28 24.04 196.84 25.84L196.84 25.84Q193.24 30.40 193.24 36.16L193.24 36.16L193.24 47.20Q204.40 40 206.44 40L206.44 40Q209.80 40 213.88 44.38Q217.96 48.76 217.96 54.16L217.96 54.16L217.96 67.24Q217.96 68.56 205.48 73.36L205.48 73.36Q213.04 93.40 220.24 96.40L220.24 96.40Q222.52 97.48 225.28 97.72L225.28 97.72L225.28 101.20Q214.12 108.40 211.24 108.40L211.24 108.40Q207.40 108.40 201.46 96.70Q195.52 85 193.24 77.20L193.24 77.20ZM193.24 52.24L193.24 71.32Q195.64 71.32 201.88 68.32L201.88 68.32L204.04 67.24L204.04 61.84Q204.04 51.64 197.08 51.64L197.08 51.64L193.24 52.24Z"/>
  <path fill="#d4a017" d="M257.64 95.68L257.64 57.64Q257.64 51.04 251.76 49.84L251.76 49.84L251.76 47.20Q264.72 40 264.84 40L264.84 40Q265.92 40 268.68 42.34Q271.44 44.68 272.04 47.32L272.04 47.32Q272.28 47.08 279.36 43.54Q286.44 40 286.56 40L286.56 40Q288.96 40 291.84 42.88L291.84 42.88Q297.36 48.40 297.36 57.64L297.36 57.64L297.36 97.24Q297.36 98.32 284.52 103.36Q271.68 108.40 268.56 108.40L268.56 108.40Q262.92 108.40 259.20 100.96L259.20 100.96Q246.00 108.40 242.52 108.40Q239.04 108.40 235.74 103.30Q232.44 98.20 232.44 93.88L232.44 93.88L232.44 57.64Q232.44 51.04 226.56 49.84L226.56 49.84L226.56 47.20L239.64 39.88Q242.28 40.96 244.56 43.42Q246.84 45.88 246.84 47.92L246.84 47.92L246.84 85Q246.84 96.40 253.92 96.40L253.92 96.40Q255.72 96.40 257.64 95.68L257.64 95.68ZM272.16 86.20Q272.16 90.04 273.66 93.34Q275.16 96.64 277.80 96.64Q280.44 96.64 282.84 95.56L282.84 95.56L282.84 61.96Q282.84 55.72 280.32 53.62Q277.80 51.52 272.16 51.40L272.16 51.40L272.16 86.20Z"/>
  <path fill="#d4a017" d="M348.56 55.84L348.56 55.84L348.56 89.80Q348.56 94.24 350 95.98Q351.44 97.72 354.44 98.44L354.44 98.44L354.44 101.08L341.36 108.40Q338.72 107.32 336.44 104.86Q334.16 102.40 334.16 100.36L334.16 100.36L319.16 108.40Q318.80 108.16 318.08 107.74Q317.36 107.32 315.62 105.94Q313.88 104.56 312.56 103.00L312.56 103.00Q308.96 99.04 308.96 94L308.96 94L308.96 74.32Q308.96 72.40 315.20 69.40Q321.44 66.40 327.68 64.48L327.68 64.48L334.04 62.44Q334.04 55.60 330.44 52.90Q326.84 50.20 316.52 50.20L316.52 50.20L316.52 46.60Q335.12 40 337.40 40L337.40 40Q341.36 40 344.96 45.16Q348.56 50.32 348.56 55.84ZM323.36 89.68Q323.36 92.80 325.22 94.78Q327.08 96.76 329.36 96.76Q331.64 96.76 334.16 94.96L334.16 94.96L334.16 67.84Q331.16 68.92 329.66 69.64Q328.16 70.36 326.48 71.92L326.48 71.92Q323.36 74.80 323.36 81.88L323.36 81.88L323.36 89.68Z"/>
  <path fill="#d4a017" d="M356.68 49.84L356.68 47.20L369.88 40Q370.72 40.24 371.86 40.66Q373 41.08 374.98 43Q376.96 44.92 376.96 47.32L376.96 47.32Q377.56 47.08 382.66 43.54Q387.76 40 389.20 40L389.20 40Q393.04 40 396.40 45.04Q399.76 50.08 399.76 54.28L399.76 54.28L399.76 60.16L387.40 67.12L385.36 65.44Q385.36 55.36 383.44 53.92L383.44 53.92Q381.28 52.36 376.96 52.36L376.96 52.36L376.96 90.64Q376.96 97.96 381.88 98.92L381.88 98.92L381.88 101.56L369.76 108.40Q367.12 107.32 364.84 104.86Q362.56 102.40 362.56 100.24L362.56 100.24L362.56 60.40Q362.56 55.12 360.70 52.48Q358.84 49.84 356.68 49.84L356.68 49.84Z"/>
  <path fill="#d4a017" d="M432.72 16L432.72 16Q435.96 16 442.92 31.72Q449.88 47.44 449.88 53.44L449.88 53.44L449.88 90.04Q449.88 92.80 451.38 95.44Q452.88 98.08 455.64 98.44L455.64 98.44L455.64 101.08Q454.80 101.20 442.56 108.40L442.56 108.40Q439.80 107.20 437.58 104.86Q435.36 102.52 435.36 100.48L435.36 100.48Q422.52 108.40 420.36 108.40L420.36 108.40Q419.52 108.40 417.18 106.54Q414.84 104.68 412.50 101.14Q410.16 97.60 410.16 93.88L410.16 93.88L410.16 51.04Q410.16 49.84 430.44 42.76L430.44 42.76Q426.12 33.28 423.48 29.44Q420.84 25.60 418.32 25.60L418.32 25.60L414.36 25.60L414.36 22Q427.68 16 432.72 16ZM430.68 97.36L430.68 97.36Q432.96 97.36 435.36 95.44L435.36 95.44L435.36 53.68Q435.36 52.96 434.34 50.62Q433.32 48.28 432.84 48.28L432.84 48.28Q429.36 48.28 425.76 50.44L425.76 50.44L424.56 51.16L424.56 88.48Q424.56 97.36 430.68 97.36Z"/>
  <path fill="#d4a017" d="M493.16 40L493.16 40Q493.76 40 496.16 41.86Q498.56 43.72 500.96 47.02Q503.36 50.32 503.36 53.44L503.36 53.44L503.36 73.60Q503.36 75.76 497.00 78.88Q490.64 82 484.70 83.98Q478.76 85.96 478.28 85.96L478.28 85.96Q478.28 95.20 486.32 97.36L486.32 97.36Q490.28 98.32 495.80 98.32L495.80 98.32L495.80 101.80Q476.12 108.40 474.80 108.40L474.80 108.40Q471.20 108.40 467.48 103.30Q463.76 98.20 463.76 91.36L463.76 91.36L463.76 51.04Q463.76 50.20 477.44 45.10Q491.12 40 493.16 40ZM488.96 59.08Q488.96 55.72 487.40 53.38Q485.84 51.04 483.44 51.04Q481.04 51.04 478.16 52.84L478.16 52.84L478.16 80.56Q488.96 77.56 488.96 67.60L488.96 67.60L488.96 59.08Z"/>
  <path fill="#d4a017" d="M516.76 100.24L516.76 100.24L516.76 59.56Q516.76 55.60 515.08 52.72Q513.40 49.84 510.88 49.84L510.88 49.84L510.88 47.20Q511.72 47.08 523.96 39.88L523.96 39.88Q524.80 40.12 526 40.54Q527.20 40.96 529.18 42.88Q531.16 44.80 531.16 47.32L531.16 47.32Q531.88 46.96 535.24 45.04L535.24 45.04Q544.12 40 545.80 40L545.80 40Q549.64 40 553 45.04Q556.36 50.08 556.36 54.28L556.36 54.28L556.36 90.64Q556.36 97.24 562.24 98.44L562.24 98.44L562.24 101.08L549.16 108.40Q546.52 107.32 544.24 104.86Q541.96 102.40 541.96 100.24L541.96 100.24L541.96 65.44Q541.96 58.72 540.46 55.18Q538.96 51.64 535.12 51.64L535.12 51.64L531.16 52.36L531.16 90.64Q531.16 97.96 536.08 98.92L536.08 98.92L536.08 101.56L523.96 108.40Q521.32 107.32 519.04 104.86Q516.76 102.40 516.76 100.24Z"/>
</svg>
